# xmcd
#
# Track frame offsets: 
#        150
#        22495
#        36384
#        53659
#        71579
#        83710
#        98674
#        117139
#        133196
#        149469
#        172194
#        189269
#
# Disc length: 2782 seconds
#
# Revision: 2
# Processed by: cddbd v1.5.2PL0 Copyright (c) Steve Scherf et al.
# Submitted via: ExactAudioCopy v0.99pb3
#
DISCID=ad0adc0c
DTITLE=The Mekons - Natural
DYEAR=2007
DGENRE=Country
TTITLE0=Dark Dark Dark
TTITLE1=Dickie, Chalkie and Nobby
TTITLE2=The Old Fox
TTITLE3=White Stone Door
TTITLE4=Shocking Curse Bird
TTITLE5=Give Me Wine or Money
TTITLE6=Diamonds
TTITLE7=Burning in the Desert Burning
TTITLE8=The Hope and Anchor
TTITLE9=Cockermouth
TTITLE10=Zeroes and Ones
TTITLE11=Perfect Mirror
EXTD=YEAR: 2007
EXTT0=
EXTT1=
EXTT2=
EXTT3=
EXTT4=
EXTT5=
EXTT6=
EXTT7=
EXTT8=
EXTT9=
EXTT10=
EXTT11=
PLAYORDER=
